<?xml version="1.0" encoding="UTF-8" standalone="no"?>
<svg
   xmlns:dc="http://purl.org/dc/elements/1.1/"
   xmlns:cc="http://creativecommons.org/ns#"
   xmlns:rdf="http://www.w3.org/1999/02/22-rdf-syntax-ns#"
   xmlns:svg="http://www.w3.org/2000/svg"
   xmlns="http://www.w3.org/2000/svg"
   viewBox="0 0 1043.36 197.03999"
   height="197.03999"
   width="1043.36"
   xml:space="preserve"
   id="svg2"
   version="1.1"><metadata
     id="metadata8"><rdf:RDF><cc:Work
         rdf:about=""><dc:format>image/svg+xml</dc:format><dc:type
           rdf:resource="http://purl.org/dc/dcmitype/StillImage" /></cc:Work></rdf:RDF></metadata><defs
     id="defs6"><clipPath
       id="clipPath60"
       clipPathUnits="userSpaceOnUse"><path
         id="path58"
         d="M 0,0 H 7825 V 1478 H 0 Z" /></clipPath><clipPath
       id="clipPath66"
       clipPathUnits="userSpaceOnUse"><path
         id="path64"
         d="M 698.945,461.711 C 691.703,234.871 528.629,72.8789 345.918,72.8789 163.199,72.8789 2.20313,261.922 0.046875,460.93 -3.86328,823.195 229.219,870.391 250.703,1116.93 c 0,0 26.777,-27.99 69.426,-72.41 58.469,-60.915 29.004,178.46 6.394,325.67 -9.535,61.99 -17.824,107.64 -17.824,107.64 C 495.59,1235.07 707.535,731.039 698.945,461.711 Z" /></clipPath><linearGradient
       id="linearGradient74"
       spreadMethod="pad"
       gradientTransform="matrix(-6.14e-5,-1404.96,-1404.96,6.14e-5,349.6,1477.83)"
       gradientUnits="userSpaceOnUse"
       y2="0"
       x2="1"
       y1="0"
       x1="0"><stop
         id="stop68"
         offset="0"
         style="stop-opacity:1;stop-color:#f9a72b" /><stop
         id="stop70"
         offset="0.430303"
         style="stop-opacity:1;stop-color:#f68712" /><stop
         id="stop72"
         offset="1"
         style="stop-opacity:1;stop-color:#f14624" /></linearGradient><clipPath
       id="clipPath86"
       clipPathUnits="userSpaceOnUse"><path
         id="path84"
         d="M 500.754,203.66 C 463.098,112.949 386.785,69.3398 308.844,82.6094 230.898,95.8711 184.652,178.461 198.176,263.5 c 24.633,154.84 207.676,147.391 236.961,311.332 0,0 138.629,-195.352 65.617,-371.172 z" /></clipPath><linearGradient
       id="linearGradient94"
       spreadMethod="pad"
       gradientTransform="matrix(310.715,-52.8574,-52.8574,-310.715,213.833,355.62)"
       gradientUnits="userSpaceOnUse"
       y2="0"
       x2="1"
       y1="0"
       x1="0"><stop
         id="stop88"
         offset="0"
         style="stop-opacity:1;stop-color:#f9a72b" /><stop
         id="stop90"
         offset="0.430303"
         style="stop-opacity:1;stop-color:#f68712" /><stop
         id="stop92"
         offset="1"
         style="stop-opacity:1;stop-color:#f14624" /></linearGradient></defs><g
     transform="matrix(1.3333333,0,0,-1.3333333,0,197.04)"
     id="g10"><g
       transform="scale(0.1)"
       id="g12"><path
         id="path14"
         style="fill:#4f4c4c;fill-opacity:1;fill-rule:nonzero;stroke:none"
         d="m 1125.07,602.254 h 180.09 c 72.35,0 122.38,36.93 122.38,112.351 0,75.426 -50.03,112.372 -122.38,112.372 h -180.09 z m -52.35,269.363 h 243.99 c 98.51,0 163.17,-57.722 163.17,-157.012 0,-99.285 -64.66,-157.007 -163.17,-157.007 H 1125.07 V 322.082 h -52.35 v 549.535" /><path
         id="path16"
         style="fill:#4f4c4c;fill-opacity:1;fill-rule:nonzero;stroke:none"
         d="m 1833.88,548.367 c -2.31,73.106 -47.72,141.606 -126.23,141.606 -79.27,0 -123.14,-69.262 -130.85,-141.606 z M 1576.8,507.566 c 0.78,-70.796 37.72,-156.246 130.85,-156.246 70.8,0 109.29,41.559 124.68,101.602 h 48.5 c -20.79,-90.043 -73.12,-142.383 -173.18,-142.383 -126.23,0 -179.32,96.973 -179.32,210.125 0,104.656 53.09,210.106 179.32,210.106 127.76,0 178.57,-111.602 174.71,-223.204 H 1576.8" /><path
         id="path18"
         style="fill:#4f4c4c;fill-opacity:1;fill-rule:nonzero;stroke:none"
         d="m 2024.72,719.227 h 80.81 v -40.793 h -80.81 V 410.582 c 0,-31.551 4.61,-50.012 39.24,-52.332 13.86,0 27.71,0.762 41.57,2.32 v -41.582 c -14.63,0 -28.48,-1.527 -43.1,-1.527 -64.65,0 -86.97,21.551 -86.21,89.289 v 271.684 h -69.27 v 40.793 h 69.27 v 119.3 h 48.5 v -119.3" /><path
         id="path20"
         style="fill:#4f4c4c;fill-opacity:1;fill-rule:nonzero;stroke:none"
         d="m 2461.09,548.367 c -2.32,73.106 -47.72,141.606 -126.23,141.606 -79.28,0 -123.16,-69.262 -130.85,-141.606 z m -257.08,-40.801 c 0.78,-70.796 37.71,-156.246 130.85,-156.246 70.81,0 109.3,41.559 124.69,101.602 h 48.48 c -20.77,-90.043 -73.11,-142.383 -173.17,-142.383 -126.23,0 -179.33,96.973 -179.33,210.125 0,104.656 53.1,210.106 179.33,210.106 127.77,0 178.56,-111.602 174.72,-223.204 h -305.57" /><path
         id="path22"
         style="fill:#4f4c4c;fill-opacity:1;fill-rule:nonzero;stroke:none"
         d="m 2574.96,719.227 h 44.63 v -93.125 h 1.55 c 24.63,63.871 78.5,101.586 150.08,98.515 v -48.484 c -87.74,4.605 -147.77,-60.039 -147.77,-142.395 V 322.082 h -48.49 v 397.145" /><path
         id="path24"
         style="fill:#393536;fill-opacity:1;fill-rule:nonzero;stroke:none"
         d="m 2851.25,502.945 c -2.32,-113.136 79.26,-147.765 179.32,-147.765 57.73,0 145.47,31.539 145.47,111.601 0,62.336 -62.34,86.969 -113.14,99.282 l -122.39,30.019 c -64.65,16.16 -123.91,46.949 -123.91,132.383 0,53.871 34.65,154.703 189.34,154.703 108.52,0 203.97,-58.496 203.2,-170.863 h -52.33 c -3.08,83.89 -72.37,126.222 -150.1,126.222 -71.57,0 -137.76,-27.703 -137.76,-109.293 0,-51.566 38.47,-73.125 83.12,-83.89 L 3086,612.242 c 77.73,-20.777 142.37,-54.644 142.37,-144.691 0,-37.719 -15.38,-157.012 -210.12,-157.012 -130.06,0 -225.5,58.492 -219.34,192.406 h 52.34" /><path
         id="path26"
         style="fill:#393536;fill-opacity:1;fill-rule:nonzero;stroke:none"
         d="M 3379.17,719.227 H 3460 v -40.793 h -80.83 V 410.582 c 0,-31.551 4.64,-50.012 39.27,-52.332 13.85,0 27.71,0.762 41.56,2.32 v -41.582 c -14.62,0 -28.48,-1.527 -43.1,-1.527 -64.66,0 -86.97,21.551 -86.21,89.289 v 271.684 h -69.26 v 40.793 h 69.26 v 119.3 h 48.48 v -119.3" /><path
         id="path28"
         style="fill:#393536;fill-opacity:1;fill-rule:nonzero;stroke:none"
         d="m 3784.01,539.129 h -1.54 c -6.16,-11.555 -27.71,-15.402 -40.8,-17.715 -82.35,-14.609 -184.71,-13.848 -184.71,-91.582 0,-48.492 43.1,-78.512 88.5,-78.512 73.89,0 139.31,46.95 138.55,124.68 z m -258.62,58.484 c 4.62,93.137 70.05,133.157 160.87,133.157 70.03,0 146.24,-21.551 146.24,-127.774 V 392.121 c 0,-18.473 9.22,-29.242 28.47,-29.242 5.39,0 11.54,1.519 15.4,3.07 V 325.16 c -10.79,-2.32 -18.46,-3.078 -31.56,-3.078 -49.26,0 -56.95,27.707 -56.95,69.277 h -1.55 c -33.86,-51.578 -68.5,-80.82 -144.7,-80.82 -73.11,0 -133.15,36.172 -133.15,116.223 0,111.586 108.53,115.453 213.21,127.758 40.01,4.621 62.34,10 62.34,53.867 0,65.426 -46.96,81.586 -103.91,81.586 -60.04,0 -104.67,-27.7 -106.21,-92.36 h -48.5" /><path
         id="path30"
         style="fill:#393536;fill-opacity:1;fill-rule:nonzero;stroke:none"
         d="m 3928.67,719.227 h 48.48 v -68.493 h 1.54 c 17.71,47.711 70.81,80.036 127,80.036 111.59,0 145.47,-58.489 145.47,-153.157 V 322.082 h -48.5 V 569.91 c 0,68.496 -22.31,120.063 -100.82,120.063 -76.97,0 -123.15,-58.481 -124.69,-136.223 V 322.082 h -48.48 v 397.145" /><path
         id="path32"
         style="fill:#393536;fill-opacity:1;fill-rule:nonzero;stroke:none"
         d="m 4343.48,871.617 h 48.49 V 322.082 h -48.49 v 549.535" /><path
         id="path34"
         style="fill:#393536;fill-opacity:1;fill-rule:nonzero;stroke:none"
         d="m 4770.63,548.367 c -2.31,73.106 -47.71,141.606 -126.23,141.606 -79.27,0 -123.14,-69.262 -130.84,-141.606 z m -257.07,-40.801 c 0.77,-70.796 37.72,-156.246 130.84,-156.246 70.82,0 109.3,41.559 124.7,101.602 h 48.48 c -20.79,-90.043 -73.1,-142.383 -173.18,-142.383 -126.22,0 -179.33,96.973 -179.33,210.125 0,104.656 53.11,210.106 179.33,210.106 127.77,0 178.56,-111.602 174.73,-223.204 h -305.57" /><path
         id="path36"
         style="fill:#393536;fill-opacity:1;fill-rule:nonzero;stroke:none"
         d="m 4839.87,719.227 h 51.57 l 130.84,-338.657 122.37,338.657 h 48.5 L 5020.74,261.281 c -27.7,-66.972 -43.88,-86.191 -104.68,-86.191 -19.23,0.762 -29.24,0.762 -36.93,3.82 v 40.801 c 11.54,-2.301 22.31,-3.84 33.1,-3.84 43.1,0 53.1,25.399 69.26,62.34 l 16.93,45.398 -158.55,395.618" /><path
         id="path38"
         style="fill:#f68712;fill-opacity:1;fill-rule:nonzero;stroke:none"
         d="m 5379.37,810.051 h -183.18 v 61.566 h 439.49 V 810.051 H 5452.5 V 322.082 h -73.13 v 487.969" /><path
         id="path40"
         style="fill:#f68712;fill-opacity:1;fill-rule:nonzero;stroke:none"
         d="m 5612.54,719.992 h 61.59 v -83.89 h 1.52 c 31.56,63.882 75.44,95.445 146.25,93.132 v -69.273 c -105.45,0 -143.94,-60.039 -143.94,-160.852 V 322.082 h -65.42 v 397.91" /><path
         id="path42"
         style="fill:#f68712;fill-opacity:1;fill-rule:nonzero;stroke:none"
         d="m 6117.42,527.574 c -25.39,-18.465 -74.66,-19.246 -118.53,-26.933 -43.1,-7.696 -80.04,-23.071 -80.04,-71.571 0,-43.109 36.94,-58.511 76.97,-58.511 86.2,0 121.6,53.89 121.6,90.05 z m 106.21,-203.965 c -11.55,-6.918 -26.17,-10.769 -46.94,-10.769 -33.87,0 -55.43,18.48 -55.43,61.57 -36.18,-42.32 -84.66,-61.57 -140.07,-61.57 -72.35,0 -131.62,32.32 -131.62,111.609 0,90.051 66.97,109.289 134.69,122.375 72.36,13.848 133.93,9.239 133.93,58.496 0,56.953 -46.95,66.188 -88.52,66.188 -55.42,0 -96.21,-16.93 -99.27,-75.426 h -65.43 c 3.84,98.516 80.04,133.152 168.56,133.152 71.57,0 149.31,-16.16 149.31,-109.296 V 415.199 c 0,-30.777 0,-44.64 20.78,-44.64 5.39,0 11.54,0.781 20.01,3.851 v -50.801" /><path
         id="path44"
         style="fill:#f68712;fill-opacity:1;fill-rule:nonzero;stroke:none"
         d="m 6288.25,719.992 h 65.41 v -397.91 h -65.41 z m 65.41,71.59 h -65.41 v 80.035 h 65.41 v -80.035" /><path
         id="path46"
         style="fill:#f68712;fill-opacity:1;fill-rule:nonzero;stroke:none"
         d="m 6455.22,719.992 h 61.58 v -63.105 h 1.54 c 27.71,49.25 72.34,72.347 129.31,72.347 104.67,0 136.99,-60.031 136.99,-145.476 V 322.082 h -65.42 v 269.383 c 0,48.496 -30.78,80.043 -80.82,80.043 -79.26,0 -117.75,-53.113 -117.75,-124.684 V 322.082 h -65.43 v 397.91" /><path
         id="path48"
         style="fill:#f68712;fill-opacity:1;fill-rule:nonzero;stroke:none"
         d="m 6886.98,719.992 h 65.41 v -397.91 h -65.41 z m 65.41,71.59 h -65.41 v 80.035 h 65.41 v -80.035" /><path
         id="path50"
         style="fill:#f68712;fill-opacity:1;fill-rule:nonzero;stroke:none"
         d="m 7053.98,719.992 h 61.56 v -63.105 h 1.54 c 27.72,49.25 72.35,72.347 129.31,72.347 104.67,0 136.99,-60.031 136.99,-145.476 V 322.082 h -65.41 v 269.383 c 0,48.496 -30.79,80.043 -80.81,80.043 -79.28,0 -117.77,-53.113 -117.77,-124.684 V 322.082 h -65.41 v 397.91" /><path
         id="path52"
         style="fill:#f68712;fill-opacity:1;fill-rule:nonzero;stroke:none"
         d="m 7760.49,529.117 c 0,70.051 -30.8,142.391 -113.13,142.391 -83.9,0 -117.77,-68.512 -117.77,-144.695 0,-71.575 26.18,-151.633 112.38,-151.633 86.2,0 118.52,79.289 118.52,153.937 z m 64.66,-173.168 c 0,-129.308 -59.27,-195.5 -184.73,-195.5 -74.65,0 -160.86,30.02 -164.7,116.981 h 65.42 c 3.06,-47.719 60.04,-64.649 103.13,-64.649 85.42,0 119.3,61.578 119.3,150.86 v 26.168 h -1.53 c -21.56,-48.489 -73.89,-72.348 -123.93,-72.348 -118.53,0 -177.79,93.121 -177.79,201.648 0,93.907 46.18,210.125 183.95,210.125 50.03,0 94.67,-22.32 118.53,-66.195 h 0.77 v 56.953 h 61.58 V 355.949" /><g
         id="g54"><g
           clip-path="url(#clipPath60)"
           id="g56"><g
             clip-path="url(#clipPath66)"
             id="g62"><path
               id="path76"
               style="fill:url(#linearGradient74);fill-opacity:1;fill-rule:nonzero;stroke:none"
               d="m 338,72 v 1 h -16 v 1 h -10 v 1 h -7 v 1 h -6 v 1 h -6 v 1 h -4 v 1 h -5 v 1 h -4 v 1 h -4 v 1 h -3 v 1 h -4 v 1 h -3 v 1 h -4 v 1 h -3 v 1 h -3 v 1 h -3 v 1 h -2 v 1 h -3 v 1 h -3 v 1 h -2 v 1 h -3 v 1 h -2 v 1 h -3 v 1 h -2 v 1 h -3 v 1 h -2 v 1 h -2 v 1 h -2 v 1 h -2 v 1 h -2 v 1 h -2 v 1 h -2 v 1 h -2 v 1 h -2 v 1 h -2 v 1 h -2 v 1 h -2 v 1 h -1 v 1 h -2 v 1 h -2 v 1 h -2 v 1 h -2 v 1 h -1 v 1 h -2 v 1 h -1 v 1 h -2 v 1 h -2 v 1 h -1 v 1 h -2 v 1 h -2 v 1 h -1 v 1 h -2 v 1 h -1 v 1 h -1 v 1 h -2 v 1 h -1 v 1 h -2 v 1 h -1 v 1 h -2 v 1 h -1 v 1 h -2 v 1 h -1 v 1 h -1 v 1 h -2 v 1 h -1 v 1 h -1 v 1 h -2 v 1 h -1 v 1 h -1 v 1 h -1 v 1 h -2 v 1 h -1 v 1 h -1 v 1 h -1 v 1 h -2 v 1 h -1 v 1 h -1 v 1 h -1 v 1 h -1 v 1 h -2 v 1 h -1 v 1 h -1 v 1 h -1 v 1 h -1 v 1 h -1 v 1 h -1 v 1 h -1 v 1 h -1 v 1 h -2 v 1 h -1 v 1 h -1 v 1 h -1 v 1 h -1 v 1 h -1 v 1 h -1 v 1 h -1 v 1 h -1 v 1 h -1 v 1 h -1 v 1 h -1 v 1 h -1 v 1 h -1 v 1 h -1 v 1 h -1 v 1 h -1 v 1 h -1 v 1 h -1 v 1 h -1 v 1 h -1 v 1 h -1 v 1 h -1 v 1 h -1 v 2 h -1 v 1 h -1 v 1 h -1 v 1 h -1 v 1 h -1 v 1 h -1 v 1 h -1 v 1 h -1 v 1 h -1 v 2 h -1 v 1 h -1 v 1 h -1 v 1 h -1 v 1 h -1 v 2 h -1 v 1 h -1 v 1 h -1 v 1 h -1 v 1 h -1 v 2 h -1 v 1 h -1 v 1 h -1 v 2 h -1 v 1 h -1 v 1 h -1 v 2 h -1 v 1 h -1 v 1 h -1 v 1 h -1 v 2 h -1 v 1 h -1 v 2 h -1 v 1 h -1 v 1 h -1 v 2 h -1 v 1 h -1 v 2 h -1 v 1 h -1 v 2 h -1 v 1 h -1 v 2 h -1 v 1 h -1 v 2 h -1 v 1 h -1 v 2 h -1 v 1 h -1 v 2 h -1 v 1 h -1 v 2 h -1 v 2 h -1 v 1 h -1 v 2 h -1 v 2 h -1 v 1 h -1 v 2 h -1 v 2 h -1 v 2 h -1 v 1 h -1 v 2 h -1 v 2 h -1 v 2 h -1 v 2 h -1 v 2 h -1 v 1 h -1 v 2 h -1 v 2 h -1 v 2 h -1 v 2 h -1 v 2 h -1 v 2 h -1 v 2 h -1 v 3 h -1 v 2 h -1 v 2 h -1 v 2 h -1 v 2 h -1 v 2 h -1 v 3 h -1 v 2 h -1 v 2 h -1 v 3 h -1 v 2 h -1 v 3 h -1 v 2 h -1 v 3 h -1 v 3 h -1 v 2 h -1 v 3 h -1 v 3 h -1 v 3 h -1 v 3 h -1 v 3 h -1 v 3 h -1 v 3 h -1 v 3 h -1 v 4 h -1 v 3 h -1 v 4 h -1 v 4 h -1 v 3 h -1 v 5 h -1 v 4 H 9 v 4 H 8 v 5 H 7 v 5 H 6 v 6 H 5 v 5 H 4 v 7 H 3 v 8 H 2 v 9 H 1 v 11 H 0 v 69 h 1 v 19 h 1 v 10 h 1 v 11 h 1 v 10 h 1 v 7 h 1 v 7 h 1 v 7 h 1 v 6 h 1 v 6 h 1 v 5 h 1 v 5 h 1 v 6 h 1 v 5 h 1 v 4 h 1 v 4 h 1 v 4 h 1 v 4 h 1 v 5 h 1 v 4 h 1 v 3 h 1 v 4 h 1 v 3 h 1 v 4 h 1 v 3 h 1 v 4 h 1 v 3 h 1 v 3 h 1 v 3 h 1 v 3 h 1 v 3 h 1 v 3 h 1 v 3 h 1 v 2 h 1 v 3 h 1 v 3 h 1 v 2 h 1 v 3 h 1 v 3 h 1 v 2 h 1 v 3 h 1 v 2 h 1 v 3 h 1 v 2 h 1 v 2 h 1 v 3 h 1 v 2 h 1 v 2 h 1 v 2 h 1 v 3 h 1 v 2 h 1 v 2 h 1 v 2 h 1 v 2 h 1 v 2 h 1 v 2 h 1 v 2 h 1 v 2 h 1 v 2 h 1 v 3 h 1 v 2 h 1 v 2 h 1 v 1 h 1 v 2 h 1 v 2 h 1 v 2 h 1 v 2 h 1 v 2 h 1 v 2 h 1 v 1 h 1 v 2 h 1 v 2 h 1 v 2 h 1 v 2 h 1 v 1 h 1 v 2 h 1 v 2 h 1 v 2 h 1 v 1 h 1 v 2 h 1 v 2 h 1 v 1 h 1 v 2 h 1 v 2 h 1 v 1 h 1 v 2 h 1 v 2 h 1 v 1 h 1 v 2 h 1 v 1 h 1 v 2 h 1 v 2 h 1 v 1 h 1 v 2 h 1 v 1 h 1 v 2 h 1 v 2 h 1 v 1 h 1 v 2 h 1 v 1 h 1 v 2 h 1 v 1 h 1 v 2 h 1 v 1 h 1 v 2 h 1 v 1 h 1 v 2 h 1 v 1 h 1 v 2 h 1 v 1 h 1 v 2 h 1 v 1 h 1 v 2 h 1 v 1 h 1 v 2 h 1 v 1 h 1 v 1 h 1 v 2 h 1 v 1 h 1 v 2 h 1 v 1 h 1 v 2 h 1 v 1 h 1 v 2 h 1 v 1 h 1 v 1 h 1 v 2 h 1 v 1 h 1 v 2 h 1 v 1 h 1 v 2 h 1 v 1 h 1 v 1 h 1 v 2 h 1 v 1 h 1 v 2 h 1 v 1 h 1 v 1 h 1 v 2 h 1 v 1 h 1 v 2 h 1 v 1 h 1 v 2 h 1 v 1 h 1 v 1 h 1 v 2 h 1 v 1 h 1 v 2 h 1 v 1 h 1 v 1 h 1 v 2 h 1 v 1 h 1 v 2 h 1 v 1 h 1 v 2 h 1 v 1 h 1 v 1 h 1 v 2 h 1 v 1 h 1 v 2 h 1 v 1 h 1 v 2 h 1 v 1 h 1 v 2 h 1 v 1 h 1 v 1 h 1 v 2 h 1 v 1 h 1 v 2 h 1 v 1 h 1 v 2 h 1 v 1 h 1 v 2 h 1 v 1 h 1 v 2 h 1 v 1 h 1 v 2 h 1 v 1 h 1 v 2 h 1 v 2 h 1 v 1 h 1 v 2 h 1 v 1 h 1 v 2 h 1 v 1 h 1 v 2 h 1 v 2 h 1 v 1 h 1 v 2 h 1 v 1 h 1 v 2 h 1 v 2 h 1 v 1 h 1 v 2 h 1 v 2 h 1 v 2 h 1 v 1 h 1 v 2 h 1 v 2 h 1 v 2 h 1 v 1 h 1 v 2 h 1 v 2 h 1 v 2 h 1 v 2 h 1 v 2 h 1 v 1 h 1 v 2 h 1 v 2 h 1 v 2 h 1 v 2 h 1 v 2 h 1 v 2 h 1 v 2 h 1 v 2 h 1 v 3 h 1 v 2 h 1 v 2 h 1 v 2 h 1 v 2 h 1 v 3 h 1 v 2 h 1 v 2 h 1 v 3 h 1 v 2 h 1 v 2 h 1 v 3 h 1 v 3 h 1 v 2 h 1 v 3 h 1 v 3 h 1 v 3 h 1 v 3 h 1 v 3 h 1 v 3 h 1 v 3 h 1 v 4 h 1 v 3 h 1 v 3 h 1 v 4 h 1 v 4 h 1 v 5 h 1 v 4 h 1 v 4 h 1 v 5 h 1 v 6 h 1 v 6 h 1 v 5 h 1 v 8 h 1 v 8 h 1 v 7 h 2 v -1 h 1 v -1 h 1 v -1 h 1 v -1 h 1 v -1 h 1 v -1 h 1 v -1 h 1 v -1 h 1 v -1 h 1 v -1 h 1 v -1 h 1 v -1 h 1 v -1 h 1 v -2 h 1 v -1 h 1 v -1 h 1 v -1 h 1 v -1 h 1 v -1 h 1 v -1 h 1 v -1 h 1 v -1 h 1 v -1 h 1 v -1 h 1 v -1 h 1 v -1 h 1 v -1 h 1 v -1 h 1 v -1 h 1 v -1 h 1 v -1 h 1 v -1 h 1 v -1 h 1 v -1 h 1 v -1 h 1 v -1 h 1 v -2 h 1 v -1 h 1 v -1 h 1 v -1 h 1 v -1 h 1 v -1 h 1 v -1 h 1 v -1 h 1 v -1 h 1 v -1 h 1 v -1 h 1 v -1 h 1 v -1 h 1 v -1 h 1 v -1 h 1 v -1 h 1 v -1 h 1 v -1 h 1 v -1 h 1 v -1 h 1 v -1 h 1 v -1 h 1 v -1 h 1 v -1 h 1 v -2 h 1 v -1 h 1 v -1 h 1 v -1 h 1 v -1 h 1 v -1 h 1 v -1 h 1 v -1 h 1 v -1 h 1 v -1 h 1 v -1 h 1 v -1 h 1 v -1 h 1 v -1 h 2 v -1 h 1 v -1 h 2 v -1 h 2 v -1 h 3 v -1 h 3 v 1 h 2 v 1 h 2 v 1 h 1 v 1 h 1 v 2 h 1 v 2 h 1 v 1 h 1 v 3 h 1 v 3 h 1 v 3 h 1 v 5 h 1 v 5 h 1 v 9 h 1 v 16 h 1 v 33 h -1 v 23 h -1 v 15 h -1 v 13 h -1 v 12 h -1 v 11 h -1 v 10 h -1 v 10 h -1 v 9 h -1 v 9 h -1 v 9 h -1 v 8 h -1 v 9 h -1 v 8 h -1 v 8 h -1 v 7 h -1 v 8 h -1 v 7 h -1 v 8 h -1 v 7 h -1 v 7 h -1 v 7 h -1 v 7 h -1 v 7 h -1 v 7 h -1 v 6 h -1 v 7 h -1 v 7 h -1 v 6 h -1 v 7 h -1 v 6 h -1 v 6 h -1 v 6 h -1 v 7 h -1 v 6 h -1 v 6 h -1 v 6 h -1 v 6 h -1 v 6 h -1 v 6 h -1 v 6 h -1 v 6 h -1 v 6 h -1 v 5 h -1 v 6 h -1 v 6 h -1 v 2 h 2 v -1 h 1 v -2 h 1 v -1 h 1 v -1 h 1 v -2 h 1 v -1 h 1 v -1 h 1 v -2 h 1 v -1 h 1 v -1 h 1 v -2 h 1 v -1 h 1 v -1 h 1 v -2 h 1 v -1 h 1 v -1 h 1 v -2 h 1 v -1 h 1 v -2 h 1 v -1 h 1 v -1 h 1 v -2 h 1 v -1 h 1 v -2 h 1 v -1 h 1 v -1 h 1 v -2 h 1 v -1 h 1 v -2 h 1 v -1 h 1 v -2 h 1 v -1 h 1 v -1 h 1 v -2 h 1 v -1 h 1 v -2 h 1 v -1 h 1 v -2 h 1 v -1 h 1 v -2 h 1 v -1 h 1 v -2 h 1 v -1 h 1 v -2 h 1 v -1 h 1 v -1 h 1 v -2 h 1 v -1 h 1 v -2 h 1 v -1 h 1 v -2 h 1 v -1 h 1 v -2 h 1 v -1 h 1 v -2 h 1 v -2 h 1 v -1 h 1 v -2 h 1 v -1 h 1 v -2 h 1 v -1 h 1 v -2 h 1 v -1 h 1 v -2 h 1 v -1 h 1 v -2 h 1 v -2 h 1 v -1 h 1 v -2 h 1 v -1 h 1 v -2 h 1 v -1 h 1 v -2 h 1 v -2 h 1 v -1 h 1 v -2 h 1 v -2 h 1 v -1 h 1 v -2 h 1 v -1 h 1 v -2 h 1 v -2 h 1 v -1 h 1 v -2 h 1 v -2 h 1 v -1 h 1 v -2 h 1 v -1 h 1 v -2 h 1 v -2 h 1 v -1 h 1 v -2 h 1 v -2 h 1 v -2 h 1 v -1 h 1 v -2 h 1 v -2 h 1 v -1 h 1 v -2 h 1 v -2 h 1 v -1 h 1 v -2 h 1 v -2 h 1 v -1 h 1 v -2 h 1 v -2 h 1 v -2 h 1 v -1 h 1 v -2 h 1 v -2 h 1 v -2 h 1 v -1 h 1 v -2 h 1 v -2 h 1 v -2 h 1 v -1 h 1 v -2 h 1 v -2 h 1 v -2 h 1 v -1 h 1 v -2 h 1 v -2 h 1 v -2 h 1 v -1 h 1 v -2 h 1 v -2 h 1 v -2 h 1 v -2 h 1 v -2 h 1 v -1 h 1 v -2 h 1 v -2 h 1 v -2 h 1 v -2 h 1 v -2 h 1 v -1 h 1 v -2 h 1 v -2 h 1 v -2 h 1 v -2 h 1 v -1 h 1 v -2 h 1 v -2 h 1 v -2 h 1 v -2 h 1 v -2 h 1 v -2 h 1 v -2 h 1 v -2 h 1 v -2 h 1 v -1 h 1 v -2 h 1 v -2 h 1 v -2 h 1 v -2 h 1 v -2 h 1 v -2 h 1 v -2 h 1 v -2 h 1 v -2 h 1 v -2 h 1 v -2 h 1 v -2 h 1 v -2 h 1 v -1 h 1 v -2 h 1 v -2 h 1 v -2 h 1 v -2 h 1 v -2 h 1 v -2 h 1 v -2 h 1 v -2 h 1 v -2 h 1 v -2 h 1 v -2 h 1 v -2 h 1 v -2 h 1 v -2 h 1 v -2 h 1 v -2 h 1 v -2 h 1 v -2 h 1 v -3 h 1 v -2 h 1 v -2 h 1 v -2 h 1 v -2 h 1 v -2 h 1 v -2 h 1 v -2 h 1 v -2 h 1 v -2 h 1 v -2 h 1 v -2 h 1 v -2 h 1 v -2 h 1 v -3 h 1 v -2 h 1 v -2 h 1 v -2 h 1 v -2 h 1 v -2 h 1 v -2 h 1 v -2 h 1 v -3 h 1 v -2 h 1 v -2 h 1 v -2 h 1 v -2 h 1 v -2 h 1 v -3 h 1 v -2 h 1 v -2 h 1 v -2 h 1 v -2 h 1 v -3 h 1 v -2 h 1 v -2 h 1 v -2 h 1 v -2 h 1 v -3 h 1 v -2 h 1 v -2 h 1 v -2 h 1 v -3 h 1 v -2 h 1 v -2 h 1 v -2 h 1 v -3 h 1 v -2 h 1 v -2 h 1 v -3 h 1 v -2 h 1 v -2 h 1 v -2 h 1 v -3 h 1 v -2 h 1 v -2 h 1 v -3 h 1 v -2 h 1 v -2 h 1 v -3 h 1 v -2 h 1 v -2 h 1 v -3 h 1 v -2 h 1 v -3 h 1 v -2 h 1 v -2 h 1 v -3 h 1 v -2 h 1 v -2 h 1 v -3 h 1 v -2 h 1 v -3 h 1 v -2 h 1 v -3 h 1 v -2 h 1 v -3 h 1 v -2 h 1 v -3 h 1 v -2 h 1 v -3 h 1 v -2 h 1 v -3 h 1 v -2 h 1 v -2 h 1 v -3 h 1 v -3 h 1 v -2 h 1 v -3 h 1 v -2 h 1 v -3 h 1 v -3 h 1 v -2 h 1 v -3 h 1 v -2 h 1 v -3 h 1 v -2 h 1 v -3 h 1 v -3 h 1 v -2 h 1 v -3 h 1 v -3 h 1 v -2 h 1 v -3 h 1 v -3 h 1 v -2 h 1 v -3 h 1 v -3 h 1 v -3 h 1 v -2 h 1 v -3 h 1 v -3 h 1 v -2 h 1 v -3 h 1 v -3 h 1 v -3 h 1 v -3 h 1 v -3 h 1 v -2 h 1 v -3 h 1 v -3 h 1 v -3 h 1 v -3 h 1 v -3 h 1 v -3 h 1 v -3 h 1 v -3 h 1 v -2 h 1 v -3 h 1 v -3 h 1 v -3 h 1 v -3 h 1 v -3 h 1 v -3 h 1 v -3 h 1 v -3 h 1 v -3 h 1 v -4 h 1 v -3 h 1 v -3 h 1 v -3 h 1 v -3 h 1 v -3 h 1 v -4 h 1 v -3 h 1 v -3 h 1 v -3 h 1 v -3 h 1 v -4 h 1 v -3 h 1 v -3 h 1 v -4 h 1 v -3 h 1 v -4 h 1 v -3 h 1 v -3 h 1 v -4 h 1 v -3 h 1 v -4 h 1 v -3 h 1 v -4 h 1 v -4 h 1 v -3 h 1 v -4 h 1 v -3 h 1 v -4 h 1 v -4 h 1 v -4 h 1 v -4 h 1 v -3 h 1 v -4 h 1 v -4 h 1 v -4 h 1 v -4 h 1 v -4 h 1 v -4 h 1 v -4 h 1 v -5 h 1 v -4 h 1 v -4 h 1 v -5 h 1 v -4 h 1 v -4 h 1 v -5 h 1 v -5 h 1 v -5 h 1 v -5 h 1 v -4 h 1 v -5 h 1 v -5 h 1 v -6 h 1 v -5 h 1 v -6 h 1 v -5 h 1 v -6 h 1 v -6 h 1 v -7 h 1 v -6 h 1 v -7 h 1 v -7 h 1 v -8 h 1 v -8 h 1 v -9 h 1 v -9 h 1 v -13 h 1 v -12 h 1 v -25 h 1 v -28 h -1 v -19 h -1 v -11 h -1 v -11 h -1 v -7 h -1 v -6 h -1 v -6 h -1 v -7 h -1 v -6 h -1 v -6 h -1 v -5 h -1 v -4 h -1 v -4 h -1 v -4 h -1 v -4 h -1 v -4 h -1 v -4 h -1 v -4 h -1 v -3 h -1 v -4 h -1 v -4 h -1 v -3 h -1 v -2 h -1 v -3 h -1 v -3 h -1 v -3 h -1 v -3 h -1 v -3 h -1 v -2 h -1 v -3 h -1 v -3 h -1 v -3 h -1 v -3 h -1 v -2 h -1 v -2 h -1 v -3 h -1 v -2 h -1 v -2 h -1 v -2 h -1 v -2 h -1 v -2 h -1 v -3 h -1 v -2 h -1 v -2 h -1 v -2 h -1 v -2 h -1 v -2 h -1 v -3 h -1 v -2 h -1 v -2 h -1 v -1 h -1 v -2 h -1 v -2 h -1 v -2 h -1 v -1 h -1 v -2 h -1 v -2 h -1 v -2 h -1 v -1 h -1 v -2 h -1 v -2 h -1 v -1 h -1 v -2 h -1 v -2 h -1 v -2 h -1 v -1 h -1 v -2 h -1 v -2 h -1 v -1 h -1 v -2 h -1 v -1 h -1 v -2 h -1 v -1 h -1 v -1 h -1 v -2 h -1 v -1 h -1 v -2 h -1 v -1 h -1 v -1 h -1 v -2 h -1 v -1 h -1 v -2 h -1 v -1 h -1 v -2 h -1 v -1 h -1 v -1 h -1 v -2 h -1 v -1 h -1 v -2 h -1 v -1 h -1 v -1 h -1 v -1 h -1 v -1 h -1 v -1 h -1 v -2 h -1 v -1 h -1 v -1 h -1 v -1 h -1 v -1 h -1 v -1 h -1 v -2 h -1 v -1 h -1 v -1 h -1 v -1 h -1 v -1 h -1 v -2 h -1 v -1 h -1 v -1 h -1 v -1 h -1 v -1 h -1 v -1 h -1 v -1 h -1 v -1 h -1 v -1 h -1 v -1 h -1 v -1 h -1 v -1 h -1 v -1 h -1 v -1 h -1 v -1 h -1 v -1 h -1 v -1 h -1 v -1 h -1 v -1 h -1 v -1 h -1 v -1 h -1 v -1 h -1 v -1 h -1 v -1 h -1 v -1 h -1 v -1 h -1 v -1 h -1 v -1 h -1 v -1 h -1 v -1 h -1 v -1 h -1 v -1 h -1 v -1 h -2 v -1 h -1 v -1 h -1 v -1 h -1 v -1 h -2 v -1 h -1 v -1 h -1 v -1 h -1 v -1 h -2 v -1 h -1 v -1 h -1 v -1 h -1 v -1 h -2 v -1 h -1 v -1 h -1 v -1 h -1 v -1 h -2 v -1 h -1 v -1 h -1 v -1 h -1 v -1 h -2 v -1 h -1 v -1 h -2 v -1 h -1 v -1 h -2 v -1 h -1 v -1 h -2 v -1 h -1 v -1 h -2 v -1 h -1 v -1 h -2 v -1 h -2 v -1 h -1 v -1 h -2 v -1 h -1 v -1 h -2 v -1 h -1 v -1 h -2 v -1 h -1 v -1 h -2 v -1 h -2 v -1 h -2 v -1 h -2 v -1 h -2 v -1 h -2 v -1 h -1 v -1 h -2 v -1 h -2 v -1 h -2 v -1 h -2 v -1 h -2 v -1 h -2 v -1 h -2 v -1 h -2 v -1 h -2 v -1 h -2 v -1 h -3 v -1 h -2 v -1 h -3 v -1 h -2 v -1 h -3 v -1 h -2 v -1 h -3 v -1 h -2 v -1 h -3 v -1 h -3 v -1 h -2 v -1 h -3 v -1 h -4 v -1 h -3 v -1 h -4 v -1 h -3 v -1 h -4 v -1 h -3 v -1 h -4 v -1 h -4 v -1 h -4 v -1 h -6 v -1 h -6 v -1 h -6 v -1 h -6 v -1 h -6 v -1 h -12 v -1 h -13 v -1" /></g></g></g><path
         id="path78"
         style="fill:#ffffff;fill-opacity:1;fill-rule:nonzero;stroke:none"
         d="M 619.824,261.73 C 556.438,79.3516 411.734,-15.0508 257.23,1.94922 102.734,18.9492 2.40625,175.68 19.1211,344.148 49.5352,650.852 409.602,657.422 448.086,982.559 c 0,0 294.668,-367.336 171.738,-720.829" /><g
         id="g80"><g
           clip-path="url(#clipPath86)"
           id="g82"><path
             id="path96"
             style="fill:url(#linearGradient94);fill-opacity:1;fill-rule:nonzero;stroke:none"
             d="M 500.754,203.66 C 463.098,112.949 386.785,69.3398 308.844,82.6094 230.898,95.8711 184.652,178.461 198.176,263.5 c 24.633,154.84 207.676,147.391 236.961,311.332 0,0 138.629,-195.352 65.617,-371.172" /></g></g></g></g></svg>